<?xml version="1.0" encoding="UTF-8" standalone="no"?>
<svg width="21px" height="21px" viewBox="0 0 21 21" version="1.1" xmlns="http://www.w3.org/2000/svg" xmlns:xlink="http://www.w3.org/1999/xlink">
    <defs></defs>
    <g stroke="none" stroke-width="1" fill="none" fill-rule="evenodd">
        <path d="M20.5714286,10.4285714 C20.5714286,12.6696541 19.9174173,14.6852589 18.609375,16.4754464 C17.3013327,18.265634 15.6116175,19.5044608 13.5401786,20.1919643 C13.2991059,20.2366074 13.1227684,20.2053577 13.0111607,20.0982143 C12.899553,19.9910709 12.84375,19.8571437 12.84375,19.6964286 L12.84375,16.8705357 C12.84375,16.00446 12.6116095,15.3705377 12.1473214,14.96875 C12.6562525,14.9151783 13.1138373,14.834822 13.5200893,14.7276786 C13.9263413,14.6205352 14.34598,14.4464298 14.7790179,14.2053571 C15.2120557,13.9642845 15.5736593,13.6674125 15.8638393,13.3147321 C16.1540193,12.9620518 16.3906241,12.4933065 16.5736607,11.9084821 C16.7566973,11.3236578 16.8482143,10.6517895 16.8482143,9.89285714 C16.8482143,8.8124946 16.4955392,7.89286094 15.7901786,7.13392857 C16.1205374,6.32142451 16.0848234,5.41071933 15.6830357,4.40178571 C15.4330345,4.32142817 15.0714309,4.37053482 14.5982143,4.54910714 C14.1249976,4.72767946 13.7142875,4.92410607 13.3660714,5.13839286 L12.8571429,5.45982143 C12.0267816,5.22767741 11.1696473,5.11160714 10.2857143,5.11160714 C9.40178129,5.11160714 8.54464701,5.22767741 7.71428571,5.45982143 C7.57142786,5.36160665 7.38169761,5.24107214 7.14508929,5.09821429 C6.90848096,4.95535643 6.53571683,4.78348315 6.02678571,4.58258929 C5.5178546,4.38169542 5.13392987,4.32142817 4.875,4.40178571 C4.48214089,5.41071933 4.45089121,6.32142451 4.78125,7.13392857 C4.07588933,7.89286094 3.72321429,8.8124946 3.72321429,9.89285714 C3.72321429,10.6517895 3.81473123,11.3214257 3.99776786,11.9017857 C4.18080449,12.4821458 4.41517714,12.9508911 4.70089286,13.3080357 C4.98660857,13.6651804 5.34597998,13.9642845 5.77901786,14.2053571 C6.21205574,14.4464298 6.6316944,14.6205352 7.03794643,14.7276786 C7.44419846,14.834822 7.90178317,14.9151783 8.41071429,14.96875 C8.05356964,15.2901802 7.83482183,15.749997 7.75446429,16.3482143 C7.56696335,16.4375004 7.3660725,16.5044641 7.15178571,16.5491071 C6.93749893,16.5937502 6.68303719,16.6160714 6.38839286,16.6160714 C6.09374853,16.6160714 5.80134074,16.5200902 5.51116071,16.328125 C5.22098069,16.1361598 4.97321531,15.8571447 4.76785714,15.4910714 C4.59821344,15.2053557 4.38169775,14.9732152 4.11830357,14.7946429 C3.8549094,14.6160705 3.63392946,14.5089287 3.45535714,14.4732143 L3.1875,14.4330357 C2.99999906,14.4330357 2.87053607,14.4531248 2.79910714,14.4933036 C2.72767821,14.5334823 2.70535701,14.5848211 2.73214286,14.6473214 C2.75892871,14.7098217 2.79910688,14.7723211 2.85267857,14.8348214 C2.90625027,14.8973217 2.9642854,14.9508926 3.02678571,14.9955357 L3.12053571,15.0625 C3.31696527,15.1517862 3.51115975,15.3214273 3.703125,15.5714286 C3.89509025,15.8214298 4.03571384,16.0491061 4.125,16.2544643 L4.25892857,16.5625 C4.37500058,16.9017874 4.57142719,17.1763382 4.84821429,17.3861607 C5.12500138,17.5959832 5.42410554,17.7299104 5.74553571,17.7879464 C6.06696589,17.8459824 6.37723065,17.8772321 6.67633929,17.8816964 C6.97544792,17.8861607 7.2232133,17.8705359 7.41964286,17.8348214 L7.72767857,17.78125 C7.72767857,18.1205374 7.72991069,18.5178549 7.734375,18.9732143 C7.73883931,19.4285737 7.74107143,19.6696427 7.74107143,19.6964286 C7.74107143,19.8571437 7.68303629,19.9910709 7.56696429,20.0982143 C7.45089228,20.2053577 7.27232263,20.2366074 7.03125,20.1919643 C4.95981107,19.5044608 3.27009583,18.265634 1.96205357,16.4754464 C0.654011317,14.6852589 0,12.6696541 0,10.4285714 C0,8.56249067 0.45981683,6.84152574 1.37946429,5.265625 C2.29911174,3.68972426 3.54686712,2.44196888 5.12276786,1.52232143 C6.69866859,0.602673973 8.41963353,0.142857143 10.2857143,0.142857143 C12.151795,0.142857143 13.87276,0.602673973 15.4486607,1.52232143 C17.0245615,2.44196888 18.2723168,3.68972426 19.1919643,5.265625 C20.1116117,6.84152574 20.5714286,8.56249067 20.5714286,10.4285714 L20.5714286,10.4285714 Z" fill="#FFFFFF"></path>
    </g>
</svg>