<?xml version="1.0" encoding="UTF-8" standalone="no"?>
<svg width="13px" height="15px" viewBox="0 0 13 15" version="1.1" xmlns="http://www.w3.org/2000/svg" xmlns:xlink="http://www.w3.org/1999/xlink">
    <defs></defs>
    <g stroke="none" stroke-width="1" fill="none" fill-rule="evenodd">
        <path d="M4.57142857,5.85714286 L4.57142857,11 C4.57142857,11.0833338 4.54464312,11.1517854 4.49107143,11.2053571 C4.43749973,11.2589288 4.36904804,11.2857143 4.28571429,11.2857143 L3.71428571,11.2857143 C3.63095196,11.2857143 3.56250027,11.2589288 3.50892857,11.2053571 C3.45535688,11.1517854 3.42857143,11.0833338 3.42857143,11 L3.42857143,5.85714286 C3.42857143,5.77380911 3.45535688,5.70535741 3.50892857,5.65178571 C3.56250027,5.59821402 3.63095196,5.57142857 3.71428571,5.57142857 L4.28571429,5.57142857 C4.36904804,5.57142857 4.43749973,5.59821402 4.49107143,5.65178571 C4.54464312,5.70535741 4.57142857,5.77380911 4.57142857,5.85714286 L4.57142857,5.85714286 Z M6.85714286,5.85714286 L6.85714286,11 C6.85714286,11.0833338 6.83035741,11.1517854 6.77678571,11.2053571 C6.72321402,11.2589288 6.65476232,11.2857143 6.57142857,11.2857143 L6,11.2857143 C5.91666625,11.2857143 5.84821455,11.2589288 5.79464286,11.2053571 C5.74107116,11.1517854 5.71428571,11.0833338 5.71428571,11 L5.71428571,5.85714286 C5.71428571,5.77380911 5.74107116,5.70535741 5.79464286,5.65178571 C5.84821455,5.59821402 5.91666625,5.57142857 6,5.57142857 L6.57142857,5.57142857 C6.65476232,5.57142857 6.72321402,5.59821402 6.77678571,5.65178571 C6.83035741,5.70535741 6.85714286,5.77380911 6.85714286,5.85714286 L6.85714286,5.85714286 Z M9.14285714,5.85714286 L9.14285714,11 C9.14285714,11.0833338 9.1160717,11.1517854 9.0625,11.2053571 C9.0089283,11.2589288 8.94047661,11.2857143 8.85714286,11.2857143 L8.28571429,11.2857143 C8.20238054,11.2857143 8.13392884,11.2589288 8.08035714,11.2053571 C8.02678545,11.1517854 8,11.0833338 8,11 L8,5.85714286 C8,5.77380911 8.02678545,5.70535741 8.08035714,5.65178571 C8.13392884,5.59821402 8.20238054,5.57142857 8.28571429,5.57142857 L8.85714286,5.57142857 C8.94047661,5.57142857 9.0089283,5.59821402 9.0625,5.65178571 C9.1160717,5.70535741 9.14285714,5.77380911 9.14285714,5.85714286 L9.14285714,5.85714286 Z M10.2857143,12.3214286 L10.2857143,3.85714286 L2.28571429,3.85714286 L2.28571429,12.3214286 C2.28571429,12.4523816 2.30654741,12.5729161 2.34821429,12.6830357 C2.38988116,12.7931553 2.43303549,12.8735117 2.47767857,12.9241071 C2.52232165,12.9747026 2.55357134,13 2.57142857,13 L10,13 C10.0178572,13 10.0491069,12.9747026 10.09375,12.9241071 C10.1383931,12.8735117 10.1815474,12.7931553 10.2232143,12.6830357 C10.2648812,12.5729161 10.2857143,12.4523816 10.2857143,12.3214286 L10.2857143,12.3214286 Z M4.28571429,2.71428571 L8.28571429,2.71428571 L7.85714286,1.66964286 C7.81547598,1.61607116 7.76488125,1.58333339 7.70535714,1.57142857 L4.875,1.57142857 C4.81547589,1.58333339 4.76488116,1.61607116 4.72321429,1.66964286 L4.28571429,2.71428571 Z M12.5714286,3 L12.5714286,3.57142857 C12.5714286,3.65476232 12.5446431,3.72321402 12.4910714,3.77678571 C12.4374997,3.83035741 12.369048,3.85714286 12.2857143,3.85714286 L11.4285714,3.85714286 L11.4285714,12.3214286 C11.4285714,12.8154787 11.2886919,13.2425577 11.0089286,13.6026786 C10.7291653,13.9627994 10.3928591,14.1428571 10,14.1428571 L2.57142857,14.1428571 C2.17856946,14.1428571 1.8422633,13.9687517 1.5625,13.6205357 C1.2827367,13.2723197 1.14285714,12.8511929 1.14285714,12.3571429 L1.14285714,3.85714286 L0.285714286,3.85714286 C0.202380536,3.85714286 0.133928839,3.83035741 0.0803571429,3.77678571 C0.0267854464,3.72321402 0,3.65476232 0,3.57142857 L0,3 C0,2.91666625 0.0267854464,2.84821455 0.0803571429,2.79464286 C0.133928839,2.74107116 0.202380536,2.71428571 0.285714286,2.71428571 L3.04464286,2.71428571 L3.66964286,1.22321429 C3.75892902,1.00297509 3.9196417,0.815476964 4.15178571,0.660714286 C4.38392973,0.505951607 4.61904643,0.428571429 4.85714286,0.428571429 L7.71428571,0.428571429 C7.95238214,0.428571429 8.18749884,0.505951607 8.41964286,0.660714286 C8.65178687,0.815476964 8.81249955,1.00297509 8.90178571,1.22321429 L9.52678571,2.71428571 L12.2857143,2.71428571 C12.369048,2.71428571 12.4374997,2.74107116 12.4910714,2.79464286 C12.5446431,2.84821455 12.5714286,2.91666625 12.5714286,3 L12.5714286,3 Z" fill="#CCCCCC"></path>
    </g>
</svg>