<svg width="21" height="21" viewBox="0 0 21 21" xmlns="http://www.w3.org/2000/svg"><path d="M20.57 10.43c0 2.24-.653 4.255-1.96 6.045-1.31 1.79-2.998 3.03-5.07 3.717-.24.045-.417.013-.53-.094a.534.534 0 0 1-.166-.402V16.87c0-.866-.232-1.5-.697-1.9.51-.055.967-.135 1.373-.242a5.47 5.47 0 0 0 1.26-.523c.432-.24.794-.538 1.084-.89.29-.353.527-.822.71-1.407.183-.584.274-1.256.274-2.015 0-1.08-.352-2-1.058-2.76.33-.812.295-1.722-.107-2.73-.25-.082-.612-.032-1.085.146s-.884.374-1.232.588l-.51.322a9.505 9.505 0 0 0-2.57-.348c-.884 0-1.74.116-2.572.348-.143-.098-.332-.22-.57-.362-.236-.143-.608-.315-1.117-.515-.51-.2-.893-.262-1.152-.18-.393 1.008-.424 1.918-.094 2.73-.704.76-1.057 1.68-1.057 2.76 0 .76.092 1.428.275 2.01.183.58.417 1.048.703 1.405.287.357.646.656 1.08.897.432.24.852.416 1.258.523.406.107.864.187 1.373.24-.356.322-.575.782-.656 1.38-.187.09-.388.156-.602.2a3.79 3.79 0 0 1-.764.068c-.294 0-.587-.096-.877-.288-.29-.192-.537-.47-.742-.837a2.16 2.16 0 0 0-.65-.695c-.263-.18-.484-.286-.663-.322l-.268-.04c-.187 0-.316.02-.388.06-.072.04-.095.092-.068.154a.738.738 0 0 0 .12.188.98.98 0 0 0 .175.16l.094.068c.197.09.39.258.583.508.192.25.333.48.422.684l.134.308c.115.34.31.614.588.824.277.21.576.344.898.402.32.058.63.09.93.094.3.004.547-.01.744-.047l.308-.054c0 .34.002.738.006 1.193l.007.723c0 .16-.057.295-.173.402-.116.107-.295.14-.536.094-2.07-.688-3.76-1.926-5.068-3.717C.654 14.685 0 12.67 0 10.43 0 8.56.46 6.84 1.38 5.265a10.24 10.24 0 0 1 3.743-3.744C6.7.602 8.42.142 10.286.142s3.587.46 5.163 1.38a10.24 10.24 0 0 1 3.742 3.744c.92 1.576 1.38 3.296 1.38 5.163z" fill="#FFF" fill-rule="evenodd"/></svg>