<svg width="13" height="15" viewBox="0 0 13 15" xmlns="http://www.w3.org/2000/svg"><path d="M4.57 5.857V11c0 .083-.025.152-.08.205-.053.054-.12.08-.204.08h-.572c-.083 0-.15-.026-.205-.08-.055-.053-.08-.122-.08-.205V5.857c0-.083.025-.152.08-.205.053-.054.12-.08.204-.08h.572c.083 0 .15.026.205.08.055.053.08.122.08.205zm2.287 0V11c0 .083-.027.152-.08.205-.054.054-.122.08-.206.08H6c-.083 0-.152-.026-.205-.08-.054-.053-.08-.122-.08-.205V5.857c0-.083.026-.152.08-.205.053-.054.122-.08.205-.08h.57c.085 0 .153.026.207.08.053.053.08.122.08.205zm2.286 0V11c0 .083-.027.152-.08.205-.054.054-.123.08-.206.08h-.57c-.085 0-.153-.026-.207-.08C8.027 11.152 8 11.083 8 11V5.857c0-.083.027-.152.08-.205.054-.054.122-.08.206-.08h.57c.084 0 .153.026.207.08.053.053.08.122.08.205zm1.143 6.464V3.858h-8v8.464c0 .132.02.253.062.363.042.11.085.19.13.24.044.052.076.077.093.077H10c.018 0 .05-.025.094-.076.044-.05.088-.13.13-.24.04-.11.062-.232.062-.363zm-6-9.606h4l-.43-1.044c-.04-.054-.09-.087-.15-.1h-2.83c-.06.013-.11.046-.153.1l-.437 1.044zM12.57 3v.57c0 .085-.025.153-.08.207-.053.053-.12.08-.204.08h-.857v8.464c0 .495-.14.923-.42 1.283-.28.36-.617.54-1.01.54H2.57c-.39 0-.728-.174-1.007-.522-.28-.348-.42-.77-.42-1.263v-8.5H.286c-.084 0-.152-.027-.206-.08C.027 3.723 0 3.655 0 3.57V3c0-.083.027-.152.08-.205.054-.054.122-.08.206-.08h2.76l.624-1.492c.09-.22.25-.408.482-.562.232-.154.467-.23.705-.23h2.857c.238 0 .473.076.706.23.232.155.392.343.482.563l.625 1.49h2.76c.082 0 .15.028.204.082.055.053.08.122.08.205z" fill="#CCC" fill-rule="evenodd"/></svg>