<svg width="13" height="15" viewBox="0 0 13 15" xmlns="http://www.w3.org/2000/svg"><path d="M4.57 5.857V11a.278.278 0 0 1-.08.205.278.278 0 0 1-.204.08h-.572a.278.278 0 0 1-.205-.08.278.278 0 0 1-.08-.205V5.857c0-.083.025-.152.08-.205a.278.278 0 0 1 .204-.08h.572c.083 0 .15.026.205.08.055.053.08.122.08.205zm2.287 0V11a.278.278 0 0 1-.08.205.278.278 0 0 1-.206.08H6a.278.278 0 0 1-.205-.08.278.278 0 0 1-.08-.205V5.857c0-.083.026-.152.08-.205A.278.278 0 0 1 6 5.572h.57c.085 0 .153.026.207.08.053.053.08.122.08.205zm2.286 0V11a.278.278 0 0 1-.08.205.278.278 0 0 1-.206.08h-.57a.278.278 0 0 1-.207-.08A.278.278 0 0 1 8 11V5.857c0-.083.027-.152.08-.205a.278.278 0 0 1 .206-.08h.57c.084 0 .153.026.207.08.053.053.08.122.08.205zm1.143 6.464V3.858h-8v8.464a1.014 1.014 0 0 0 .192.604c.044.05.076.076.093.076H10c.018 0 .05-.025.094-.076a1.014 1.014 0 0 0 .192-.603zm-6-9.606h4l-.43-1.044a.252.252 0 0 0-.15-.1h-2.83a.252.252 0 0 0-.153.1l-.437 1.044zM12.57 3v.57a.278.278 0 0 1-.08.207.278.278 0 0 1-.204.08h-.857v8.464c0 .495-.14.923-.42 1.283-.28.36-.617.54-1.01.54H2.57c-.39 0-.728-.174-1.007-.522-.28-.348-.42-.77-.42-1.263v-8.5H.286a.278.278 0 0 1-.206-.08A.278.278 0 0 1 0 3.57V3c0-.083.027-.152.08-.205a.278.278 0 0 1 .206-.08h2.76l.624-1.492c.09-.22.25-.408.482-.562a1.26 1.26 0 0 1 .705-.23h2.857c.238 0 .473.076.706.23.232.155.392.343.482.563l.625 1.49h2.76a.278.278 0 0 1 .286.286z" fill="#CCC" fill-rule="evenodd"/></svg>